<svg width="1093" height="151" viewBox="0 0 1093 151" fill="none" xmlns="http://www.w3.org/2000/svg">
<path d="M38.6 83.6C38.6 93.3333 38.6 102.733 38.6 111.8C38.7333 120.867 38.8667 129.8 39 138.6H54.8C70.2667 138.6 82.1333 133.6 90.4 123.6C98.6667 113.467 102.8 99.3333 102.8 81.2C102.8 62.4 98.7333 48.0667 90.6 38.2C82.4667 28.3333 71.1333 23.4 56.6 23.4H39C38.8667 31.9333 38.7333 40.6667 38.6 49.6C38.6 58.4 38.6 67.2667 38.6 76.2V83.6ZM0.800001 22.4V14.2H59.8C72.6 14.2 83.8667 16.8 93.6 22C103.333 27.0667 110.933 34.6 116.4 44.6C121.867 54.4667 124.6 66.6667 124.6 81.2C124.6 95.6 121.6 107.8 115.6 117.8C109.6 127.667 101.4 135.2 91 140.4C80.7333 145.467 69.0667 148 56 148H0.800001V139.8L19.2 137.6C19.4667 129.067 19.6 120.4 19.6 111.6C19.6 102.667 19.6 93.3333 19.6 83.6V76.2C19.6 67.5333 19.6 58.9333 19.6 50.4C19.6 41.7333 19.4667 33.1333 19.2 24.6L0.800001 22.4ZM138.039 148V140.8L153.039 138C153.172 132.933 153.239 127.467 153.239 121.6C153.372 115.6 153.439 110.4 153.439 106V18.2L137.039 16.2V9.2L167.639 0.199996L170.439 1.8L169.639 30.2V68.8C174.572 63.3333 180.306 58.9333 186.839 55.6C193.372 52.1333 199.839 50.4 206.239 50.4C214.906 50.4 221.306 53.3333 225.439 59.2C229.706 64.9333 231.839 74.3333 231.839 87.4V106C231.839 110.533 231.839 115.733 231.839 121.6C231.972 127.467 232.106 132.933 232.239 138L246.239 140.8V148H199.839V140.8L214.439 138.2C214.572 133.133 214.639 127.667 214.639 121.8C214.772 115.8 214.839 110.533 214.839 106V89C214.839 79.8 213.572 73.4667 211.039 70C208.506 66.5333 204.306 64.8 198.439 64.8C193.506 64.8 188.839 65.8 184.439 67.8C180.039 69.8 175.306 73.1333 170.239 77.8V106C170.239 110.4 170.239 115.6 170.239 121.6C170.372 127.467 170.506 132.933 170.639 138L184.439 140.8V148H138.039ZM335.356 150C330.556 150 326.556 148.6 323.356 145.8C320.156 143 318.156 139.267 317.356 134.6C311.89 139.933 307.09 143.933 302.956 146.6C298.823 149.267 293.823 150.6 287.956 150.6C280.623 150.6 274.29 148.533 268.956 144.4C263.756 140.133 261.156 133.867 261.156 125.6C261.156 121.733 262.023 118.133 263.756 114.8C265.623 111.467 268.956 108.2 273.756 105C278.556 101.8 285.423 98.6 294.356 95.4C297.423 94.3333 300.956 93.2 304.956 92C308.956 90.8 312.956 89.7333 316.956 88.8V83.8C316.956 74.0667 315.49 67.6 312.556 64.4C309.623 61.2 304.823 59.6 298.156 59.6C296.69 59.6 295.023 59.6667 293.156 59.8C291.423 59.9333 289.49 60.2667 287.356 60.8L283.556 73.8C281.69 80.2 278.223 83.4 273.156 83.4C267.556 83.4 264.423 80.6667 263.756 75.2C265.623 67.6 270.023 61.6 276.956 57.2C284.023 52.6667 292.623 50.4 302.756 50.4C313.29 50.4 321.09 53.0667 326.156 58.4C331.223 63.6 333.756 72.5333 333.756 85.2V127.8C333.756 132.067 334.423 135.133 335.756 137C337.09 138.733 338.823 139.6 340.956 139.6C342.69 139.6 344.156 139.2 345.356 138.4C346.556 137.6 347.69 136.533 348.756 135.2L352.756 139.6C350.356 143.467 347.69 146.2 344.756 147.8C341.956 149.267 338.823 150 335.356 150ZM278.956 122.6C278.956 127.933 280.49 131.733 283.556 134C286.623 136.267 290.423 137.4 294.956 137.4C296.956 137.4 298.823 137.133 300.556 136.6C302.423 136.067 304.623 135.067 307.156 133.6C309.69 132 312.956 129.733 316.956 126.8V96.2C313.49 97.1333 310.09 98.2 306.756 99.4C303.423 100.467 300.69 101.4 298.556 102.2C292.823 104.467 288.556 106.8 285.756 109.2C282.956 111.6 281.09 113.933 280.156 116.2C279.356 118.467 278.956 120.6 278.956 122.6ZM361.338 148V140.8L375.738 138.2C375.871 133.133 375.938 127.667 375.938 121.8C376.071 115.8 376.138 110.533 376.138 106V96.4C376.138 90.9333 376.071 86.4 375.938 82.8C375.938 79.2 375.804 75.4 375.538 71.4L359.738 69.6V62.6L387.738 50.4L390.738 52.4L392.938 76C396.271 68 400.538 61.7333 405.737 57.2C411.071 52.6667 416.404 50.4 421.738 50.4C424.804 50.4 427.671 51.0667 430.338 52.4C433.004 53.7333 434.938 55.5333 436.138 57.8C436.138 67.5333 432.204 72.4 424.338 72.4C422.071 72.4 419.938 72 417.938 71.2C415.938 70.2667 414.004 69 412.138 67.4L409.738 65.2C405.738 68.1333 402.404 71.7333 399.738 76C397.071 80.2667 394.871 85.2667 393.138 91V106C393.138 110.4 393.138 115.533 393.138 121.4C393.271 127.267 393.404 132.733 393.538 137.8L409.938 140.8V148H361.338ZM445.508 148V140.8L460.308 138C460.441 132.933 460.508 127.467 460.508 121.6C460.641 115.733 460.708 110.533 460.708 106V96.4C460.708 90.9333 460.641 86.4 460.508 82.8C460.508 79.2 460.374 75.4 460.108 71.4L444.308 69.6V62.6L472.308 50.4L475.308 52.4L476.908 68.6C481.574 63.2667 487.041 58.9333 493.308 55.6C499.574 52.1333 505.774 50.4 511.908 50.4C518.174 50.4 523.241 51.8667 527.108 54.8C531.108 57.7333 533.974 62.5333 535.708 69.2C540.774 62.9333 546.441 58.2667 552.708 55.2C558.974 52 565.374 50.4 571.908 50.4C580.041 50.4 586.308 53.1333 590.708 58.6C595.241 64.0667 597.508 73 597.508 85.4V106C597.508 110.533 597.508 115.733 597.508 121.6C597.641 127.467 597.774 132.933 597.908 138L611.908 140.8V148H565.508V140.8L580.308 138C580.441 133.067 580.508 127.667 580.508 121.8C580.641 115.8 580.708 110.533 580.708 106V88.6C580.708 79.2667 579.374 73 576.708 69.8C574.041 66.4667 569.774 64.8 563.908 64.8C559.774 64.8 555.508 65.7333 551.108 67.6C546.841 69.4667 542.174 72.7333 537.108 77.4C537.241 78.8667 537.308 80.4667 537.308 82.2C537.441 83.8 537.508 85.5333 537.508 87.4V106C537.508 110.533 537.508 115.733 537.508 121.6C537.641 127.467 537.774 132.933 537.908 138L551.908 140.8V148H505.508V140.8L520.308 138C520.441 133.067 520.508 127.667 520.508 121.8C520.641 115.8 520.708 110.533 520.708 106V89C520.708 79.9333 519.441 73.6667 516.908 70.2C514.374 66.6 510.174 64.8 504.308 64.8C499.774 64.8 495.441 65.7333 491.308 67.6C487.174 69.4667 482.641 72.5333 477.708 76.8V106C477.708 110.4 477.708 115.6 477.708 121.6C477.841 127.467 477.974 132.933 478.108 138L491.908 140.8V148H445.508ZM700.981 150C696.181 150 692.181 148.6 688.981 145.8C685.781 143 683.781 139.267 682.981 134.6C677.515 139.933 672.715 143.933 668.581 146.6C664.448 149.267 659.448 150.6 653.581 150.6C646.248 150.6 639.915 148.533 634.581 144.4C629.381 140.133 626.781 133.867 626.781 125.6C626.781 121.733 627.648 118.133 629.381 114.8C631.248 111.467 634.581 108.2 639.381 105C644.181 101.8 651.048 98.6 659.981 95.4C663.048 94.3333 666.581 93.2 670.581 92C674.581 90.8 678.581 89.7333 682.581 88.8V83.8C682.581 74.0667 681.115 67.6 678.181 64.4C675.248 61.2 670.448 59.6 663.781 59.6C662.315 59.6 660.648 59.6667 658.781 59.8C657.048 59.9333 655.115 60.2667 652.981 60.8L649.181 73.8C647.315 80.2 643.848 83.4 638.781 83.4C633.181 83.4 630.048 80.6667 629.381 75.2C631.248 67.6 635.648 61.6 642.581 57.2C649.648 52.6667 658.248 50.4 668.381 50.4C678.915 50.4 686.715 53.0667 691.781 58.4C696.848 63.6 699.381 72.5333 699.381 85.2V127.8C699.381 132.067 700.048 135.133 701.381 137C702.715 138.733 704.448 139.6 706.581 139.6C708.315 139.6 709.781 139.2 710.981 138.4C712.181 137.6 713.315 136.533 714.381 135.2L718.381 139.6C715.981 143.467 713.315 146.2 710.381 147.8C707.581 149.267 704.448 150 700.981 150ZM644.581 122.6C644.581 127.933 646.115 131.733 649.181 134C652.248 136.267 656.048 137.4 660.581 137.4C662.581 137.4 664.448 137.133 666.181 136.6C668.048 136.067 670.248 135.067 672.781 133.6C675.315 132 678.581 129.733 682.581 126.8V96.2C679.115 97.1333 675.715 98.2 672.381 99.4C669.048 100.467 666.315 101.4 664.181 102.2C658.448 104.467 654.181 106.8 651.381 109.2C648.581 111.6 646.715 113.933 645.781 116.2C644.981 118.467 644.581 120.6 644.581 122.6ZM726.963 148V140.8L741.363 138.2C741.496 133.133 741.563 127.667 741.563 121.8C741.696 115.8 741.763 110.533 741.763 106V96.4C741.763 90.9333 741.696 86.4 741.563 82.8C741.563 79.2 741.429 75.4 741.163 71.4L725.363 69.6V62.6L753.363 50.4L756.363 52.4L758.563 76C761.896 68 766.163 61.7333 771.362 57.2C776.696 52.6667 782.029 50.4 787.363 50.4C790.429 50.4 793.296 51.0667 795.963 52.4C798.629 53.7333 800.563 55.5333 801.763 57.8C801.763 67.5333 797.829 72.4 789.963 72.4C787.696 72.4 785.563 72 783.563 71.2C781.563 70.2667 779.629 69 777.763 67.4L775.363 65.2C771.363 68.1333 768.029 71.7333 765.363 76C762.696 80.2667 760.496 85.2667 758.763 91V106C758.763 110.4 758.763 115.533 758.763 121.4C758.896 127.267 759.029 132.733 759.163 137.8L775.563 140.8V148H726.963ZM847.844 150.6C840.91 150.6 835.377 148.733 831.244 145C827.11 141.267 825.044 135.533 825.044 127.8C825.044 125.267 825.044 122.8 825.044 120.4C825.177 117.867 825.244 114.667 825.244 110.8V63.6H808.644V54.8L826.444 52.6L831.644 25.8H843.644L842.444 53H869.444V63.6H842.244V125.6C842.244 130.667 843.244 134.4 845.244 136.8C847.244 139.067 849.91 140.2 853.244 140.2C855.51 140.2 857.644 139.733 859.644 138.8C861.777 137.867 864.11 136.533 866.644 134.8L871.444 140C865.977 147.067 858.11 150.6 847.844 150.6ZM877.883 148V140.8L892.883 138C893.016 132.933 893.083 127.467 893.083 121.6C893.216 115.6 893.283 110.4 893.283 106V18.2L876.883 16.2V9.2L907.483 0.199996L910.283 1.8L909.483 30.2V68.8C914.416 63.3333 920.149 58.9333 926.683 55.6C933.216 52.1333 939.683 50.4 946.083 50.4C954.749 50.4 961.149 53.3333 965.283 59.2C969.549 64.9333 971.683 74.3333 971.683 87.4V106C971.683 110.533 971.683 115.733 971.683 121.6C971.816 127.467 971.949 132.933 972.083 138L986.083 140.8V148H939.683V140.8L954.283 138.2C954.416 133.133 954.483 127.667 954.483 121.8C954.616 115.8 954.683 110.533 954.683 106V89C954.683 79.8 953.416 73.4667 950.883 70C948.349 66.5333 944.149 64.8 938.283 64.8C933.349 64.8 928.683 65.8 924.283 67.8C919.883 69.8 915.149 73.1333 910.083 77.8V106C910.083 110.4 910.083 115.6 910.083 121.6C910.216 127.467 910.349 132.933 910.483 138L924.283 140.8V148H877.883ZM1075.2 150C1070.4 150 1066.4 148.6 1063.2 145.8C1060 143 1058 139.267 1057.2 134.6C1051.73 139.933 1046.93 143.933 1042.8 146.6C1038.67 149.267 1033.67 150.6 1027.8 150.6C1020.47 150.6 1014.13 148.533 1008.8 144.4C1003.6 140.133 1001 133.867 1001 125.6C1001 121.733 1001.87 118.133 1003.6 114.8C1005.47 111.467 1008.8 108.2 1013.6 105C1018.4 101.8 1025.27 98.6 1034.2 95.4C1037.27 94.3333 1040.8 93.2 1044.8 92C1048.8 90.8 1052.8 89.7333 1056.8 88.8V83.8C1056.8 74.0667 1055.33 67.6 1052.4 64.4C1049.47 61.2 1044.67 59.6 1038 59.6C1036.53 59.6 1034.87 59.6667 1033 59.8C1031.27 59.9333 1029.33 60.2667 1027.2 60.8L1023.4 73.8C1021.53 80.2 1018.07 83.4 1013 83.4C1007.4 83.4 1004.27 80.6667 1003.6 75.2C1005.47 67.6 1009.87 61.6 1016.8 57.2C1023.87 52.6667 1032.47 50.4 1042.6 50.4C1053.13 50.4 1060.93 53.0667 1066 58.4C1071.07 63.6 1073.6 72.5333 1073.6 85.2V127.8C1073.6 132.067 1074.27 135.133 1075.6 137C1076.93 138.733 1078.67 139.6 1080.8 139.6C1082.53 139.6 1084 139.2 1085.2 138.4C1086.4 137.6 1087.53 136.533 1088.6 135.2L1092.6 139.6C1090.2 143.467 1087.53 146.2 1084.6 147.8C1081.8 149.267 1078.67 150 1075.2 150ZM1018.8 122.6C1018.8 127.933 1020.33 131.733 1023.4 134C1026.47 136.267 1030.27 137.4 1034.8 137.4C1036.8 137.4 1038.67 137.133 1040.4 136.6C1042.27 136.067 1044.47 135.067 1047 133.6C1049.53 132 1052.8 129.733 1056.8 126.8V96.2C1053.33 97.1333 1049.93 98.2 1046.6 99.4C1043.27 100.467 1040.53 101.4 1038.4 102.2C1032.67 104.467 1028.4 106.8 1025.6 109.2C1022.8 111.6 1020.93 113.933 1020 116.2C1019.2 118.467 1018.8 120.6 1018.8 122.6Z" fill="#F7931A"/>
</svg>
