<svg width="723" height="68" viewBox="0 0 723 68" fill="none" xmlns="http://www.w3.org/2000/svg">
<path d="M0.872 0.799995H27.368C34.152 0.799995 40.104 2.208 45.224 5.024C50.408 7.776 54.408 11.712 57.224 16.832C60.104 21.888 61.544 27.744 61.544 34.4C61.544 41.056 60.104 46.944 57.224 52.064C54.408 57.12 50.408 61.056 45.224 63.872C40.104 66.624 34.152 68 27.368 68H0.872V0.799995ZM27.368 56.096C31.464 56.096 35.08 55.2 38.216 53.408C41.352 51.616 43.784 49.088 45.512 45.824C47.304 42.496 48.2 38.688 48.2 34.4C48.2 30.112 47.304 26.336 45.512 23.072C43.784 19.744 41.32 17.184 38.12 15.392C34.984 13.6 31.4 12.704 27.368 12.704H14.12V56.096H27.368ZM73.3408 0.799995H86.5888V27.776H118.653V0.799995H131.901V68H118.653V39.968H86.5888V68H73.3408V0.799995ZM169.957 0.799995H184.453L214.501 68H200.005L194.437 54.944H159.781L154.213 68H139.812L169.957 0.799995ZM189.637 43.232L177.157 13.952L164.677 43.232H189.637ZM222.403 0.799995H254.371C259.171 0.799995 263.363 1.728 266.947 3.584C270.595 5.44 273.411 8.096 275.395 11.552C277.379 14.944 278.371 18.848 278.371 23.264C278.371 28.64 276.931 33.184 274.051 36.896C271.171 40.608 267.139 43.136 261.955 44.48L281.827 68H265.603L247.267 45.44H235.651V68H222.403V0.799995ZM253.507 34.016C257.219 34.016 260.099 33.088 262.147 31.232C264.195 29.376 265.219 26.752 265.219 23.36C265.219 19.968 264.195 17.344 262.147 15.488C260.099 13.568 257.219 12.608 253.507 12.608H235.555V34.016H253.507ZM291.685 0.799995H303.589L327.973 31.52L352.261 0.799995H364.261V68H351.013V22.592L329.317 49.76H326.629L304.933 22.592V68H291.685V0.799995ZM402.269 0.799995H416.765L446.813 68H432.317L426.749 54.944H392.093L386.525 68H372.125L402.269 0.799995ZM421.949 43.232L409.469 13.952L396.989 43.232H421.949ZM454.716 0.799995H486.684C491.484 0.799995 495.676 1.728 499.26 3.584C502.908 5.44 505.724 8.096 507.708 11.552C509.692 14.944 510.684 18.848 510.684 23.264C510.684 28.64 509.244 33.184 506.364 36.896C503.484 40.608 499.452 43.136 494.268 44.48L514.14 68H497.916L479.58 45.44H467.964V68H454.716V0.799995ZM485.82 34.016C489.532 34.016 492.412 33.088 494.46 31.232C496.508 29.376 497.532 26.752 497.532 23.36C497.532 19.968 496.508 17.344 494.46 15.488C492.412 13.568 489.532 12.608 485.82 12.608H467.868V34.016H485.82ZM516.536 0.799995H572.312V12.704H551.096V68H537.752V12.704H516.536V0.799995ZM581.747 0.799995H594.995V27.776H627.059V0.799995H640.307V68H627.059V39.968H594.995V68H581.747V0.799995ZM678.363 0.799995H692.859L722.907 68H708.411L702.843 54.944H668.187L662.619 68H648.219L678.363 0.799995ZM698.043 43.232L685.563 13.952L673.083 43.232H698.043Z" fill="#F7931A"/>
</svg>
