<svg width="593" height="61" viewBox="0 0 593 61" fill="none" xmlns="http://www.w3.org/2000/svg">
<path d="M20.648 0.519995C25.192 0.519995 29.352 1.128 33.128 2.344C36.904 3.56 40.136 5.384 42.824 7.816C45.576 10.248 47.688 13.288 49.16 16.936C50.696 20.52 51.464 24.712 51.464 29.512C51.464 35.08 50.568 39.88 48.776 43.912C46.984 47.88 44.552 51.144 41.48 53.704C38.408 56.2 34.824 58.056 30.728 59.272C26.696 60.424 22.376 61 17.768 61H0.00800061V0.519995H20.648ZM11.72 51.784H16.904C19.72 51.784 22.44 51.464 25.064 50.824C27.752 50.12 30.12 48.936 32.168 47.272C34.216 45.608 35.848 43.336 37.064 40.456C38.344 37.576 38.984 33.928 38.984 29.512C38.984 23.112 37.16 18.216 33.512 14.824C29.928 11.432 25.064 9.736 18.92 9.736H11.72V51.784ZM62.4455 61V0.519995H74.1575V25H99.0215V0.519995H110.734V61H99.0215V34.408H74.1575V61H62.4455ZM138.712 37.384H155.512L152.344 28.456C151.448 25.768 150.584 23.24 149.752 20.872C148.984 18.504 148.184 15.912 147.352 13.096H147.16C146.264 15.72 145.4 18.28 144.568 20.776C143.736 23.208 142.84 25.768 141.88 28.456L138.712 37.384ZM141.592 0.519995H153.304L176.248 61H163.864L158.488 46.12H135.928L130.552 61H118.36L141.592 0.519995ZM184.039 0.519995H205.831C209.159 0.519995 212.071 0.999996 214.567 1.96C217.063 2.92 219.143 4.232 220.807 5.896C222.535 7.56 223.815 9.512 224.647 11.752C225.543 13.992 225.991 16.424 225.991 19.048C225.991 21.48 225.607 23.624 224.839 25.48C224.135 27.336 223.207 28.968 222.055 30.376C220.903 31.784 219.623 32.968 218.215 33.928C216.807 34.824 215.431 35.56 214.087 36.136L229.351 61H216.007L203.431 38.248H195.463V61H184.039V0.519995ZM195.463 29.128H201.319C204.967 29.128 207.975 28.392 210.343 26.92C212.711 25.384 213.895 22.856 213.895 19.336C213.895 16.136 212.935 13.704 211.015 12.04C209.159 10.376 206.407 9.544 202.759 9.544H195.463V29.128ZM241.502 0.519995H256.382L265.982 30.664C266.814 33.288 267.582 35.912 268.286 38.536C269.054 41.096 269.726 43.624 270.302 46.12H270.686C270.942 45.032 271.23 43.848 271.55 42.568C271.934 41.224 272.318 39.88 272.702 38.536C273.086 37.128 273.438 35.752 273.758 34.408C274.142 33.064 274.526 31.816 274.91 30.664L284.222 0.519995H299.102L303.902 61H292.67C292.158 54.408 291.678 47.848 291.23 41.32C290.846 34.728 290.59 28.136 290.462 21.544L290.174 12.04H289.886C288.926 15.816 287.902 19.688 286.814 23.656C285.726 27.624 284.638 31.24 283.55 34.504L275.102 61H265.598L256.958 34.504C255.486 30.024 254.238 25.928 253.214 22.216C252.254 18.44 251.422 15.048 250.718 12.04H250.526C250.398 17.032 250.174 22.248 249.854 27.688C249.598 33.128 249.31 38.152 248.99 42.76L247.934 61H236.894L241.502 0.519995ZM331.087 37.384H347.887L344.719 28.456C343.823 25.768 342.959 23.24 342.127 20.872C341.359 18.504 340.559 15.912 339.727 13.096H339.535C338.639 15.72 337.775 18.28 336.943 20.776C336.111 23.208 335.215 25.768 334.255 28.456L331.087 37.384ZM333.967 0.519995H345.679L368.623 61H356.239L350.863 46.12H328.303L322.927 61H310.735L333.967 0.519995ZM376.414 0.519995H398.206C401.534 0.519995 404.446 0.999996 406.942 1.96C409.438 2.92 411.518 4.232 413.182 5.896C414.91 7.56 416.19 9.512 417.022 11.752C417.918 13.992 418.366 16.424 418.366 19.048C418.366 21.48 417.982 23.624 417.214 25.48C416.51 27.336 415.582 28.968 414.43 30.376C413.278 31.784 411.998 32.968 410.59 33.928C409.182 34.824 407.806 35.56 406.462 36.136L421.726 61H408.382L395.806 38.248H387.838V61H376.414V0.519995ZM387.838 29.128H393.694C397.342 29.128 400.35 28.392 402.718 26.92C405.086 25.384 406.27 22.856 406.27 19.336C406.27 16.136 405.31 13.704 403.39 12.04C401.534 10.376 398.782 9.544 395.134 9.544H387.838V29.128ZM470.368 0.519995V9.928H452.608V61H440.896V9.928H423.616V0.519995H470.368ZM478.227 61V0.519995H489.939V25H514.803V0.519995H526.515V61H514.803V34.408H489.939V61H478.227ZM554.493 37.384H571.293L568.125 28.456C567.229 25.768 566.365 23.24 565.533 20.872C564.765 18.504 563.965 15.912 563.133 13.096H562.941C562.045 15.72 561.181 18.28 560.349 20.776C559.517 23.208 558.621 25.768 557.661 28.456L554.493 37.384ZM557.373 0.519995H569.085L592.029 61H579.645L574.269 46.12H551.709L546.333 61H534.141L557.373 0.519995Z" fill="#F7931A"/>
</svg>
