<svg width="600" height="182" viewBox="0 0 600 182" fill="none" xmlns="http://www.w3.org/2000/svg">
<path d="M201.976 129.76H209.56V132.208H205V160H201.976V152.608C201.144 153.28 199.944 153.888 198.376 154.432C196.808 154.976 195.08 155.248 193.192 155.248C191.752 155.248 190.44 155.072 189.256 154.72C188.104 154.368 187.112 153.888 186.28 153.28C185.448 152.64 184.808 151.888 184.36 151.024C183.912 150.128 183.688 149.168 183.688 148.144C183.688 146.864 184.088 145.792 184.888 144.928C185.72 144.064 186.84 143.472 188.248 143.152C187.64 142.896 187.032 142.56 186.424 142.144C185.816 141.696 185.272 141.168 184.792 140.56C184.312 139.952 183.912 139.264 183.592 138.496C183.304 137.696 183.16 136.816 183.16 135.856C183.16 134.992 183.304 134.16 183.592 133.36C183.912 132.56 184.36 131.856 184.936 131.248C185.544 130.64 186.264 130.16 187.096 129.808C187.96 129.456 188.936 129.28 190.024 129.28C191.144 129.28 192.12 129.456 192.952 129.808C193.816 130.128 194.52 130.576 195.064 131.152C195.64 131.696 196.072 132.32 196.36 133.024C196.648 133.728 196.792 134.464 196.792 135.232C196.792 136.512 196.472 137.552 195.832 138.352C195.224 139.12 194.6 139.648 193.96 139.936L192.184 138.112C192.6 137.856 192.968 137.488 193.288 137.008C193.608 136.528 193.768 135.92 193.768 135.184C193.768 134.16 193.448 133.344 192.808 132.736C192.168 132.128 191.288 131.824 190.168 131.824C189.08 131.824 188.152 132.192 187.384 132.928C186.648 133.664 186.28 134.704 186.28 136.048C186.28 136.976 186.456 137.84 186.808 138.64C187.192 139.408 187.704 140.08 188.344 140.656C188.984 141.2 189.72 141.632 190.552 141.952C191.416 142.24 192.344 142.384 193.336 142.384H196.12V144.928H192.328C190.408 144.928 189.016 145.248 188.152 145.888C187.288 146.528 186.856 147.376 186.856 148.432C186.856 149.648 187.384 150.656 188.44 151.456C189.528 152.224 191.128 152.608 193.24 152.608C194.936 152.608 196.568 152.32 198.136 151.744C199.736 151.168 201.016 150.336 201.976 149.248V129.76ZM216.182 132.208V144.976H226.79V132.208H216.182ZM216.182 151.072C216.054 151.232 215.798 151.376 215.414 151.504C215.062 151.632 214.662 151.696 214.214 151.696C213.67 151.696 213.142 151.6 212.63 151.408C212.15 151.184 211.718 150.896 211.334 150.544C210.95 150.16 210.646 149.712 210.422 149.2C210.198 148.688 210.086 148.128 210.086 147.52C210.086 146.688 210.31 146.064 210.758 145.648C211.206 145.2 211.846 144.976 212.678 144.976H213.158V132.208H207.686V129.76H234.374V132.208H229.814V160H226.79V147.52H216.182V151.072ZM225.164 129.952V129.616C224.844 129.392 224.508 129.088 224.156 128.704C223.772 128.288 223.436 127.808 223.148 127.264C222.828 126.72 222.572 126.112 222.38 125.44C222.188 124.768 222.092 124.032 222.092 123.232C222.092 122.24 222.284 121.344 222.668 120.544C223.02 119.744 223.532 119.072 224.204 118.528C224.844 117.952 225.596 117.52 226.46 117.232C227.324 116.944 228.236 116.8 229.196 116.8C230.124 116.8 231.02 116.896 231.884 117.088C232.716 117.28 233.404 117.552 233.948 117.904L233.18 120.256C232.7 120 232.172 119.792 231.596 119.632C230.988 119.472 230.364 119.392 229.724 119.392C228.316 119.392 227.212 119.76 226.412 120.496C225.612 121.232 225.212 122.336 225.212 123.808C225.212 124.48 225.308 125.12 225.5 125.728C225.66 126.336 225.884 126.896 226.172 127.408C226.46 127.92 226.78 128.384 227.132 128.8C227.452 129.184 227.772 129.504 228.092 129.76L225.164 129.952ZM274.605 132.208V160H271.581V150.976C271.357 151.2 271.053 151.44 270.669 151.696C270.285 151.952 269.805 152.192 269.229 152.416C268.685 152.64 268.045 152.832 267.309 152.992C266.573 153.152 265.741 153.232 264.813 153.232C263.821 153.232 262.845 153.12 261.885 152.896C260.957 152.64 260.061 152.272 259.196 151.792C258.365 151.312 257.597 150.72 256.893 150.016C256.221 149.28 255.645 148.432 255.165 147.472C254.589 147.664 253.933 147.824 253.197 147.952C252.493 148.048 251.693 148.096 250.797 148.096C249.613 148.096 248.461 147.92 247.341 147.568C246.221 147.216 245.245 146.736 244.412 146.128C243.229 146.992 241.693 147.424 239.805 147.424C239.325 147.424 238.925 147.376 238.605 147.28L246.573 158.704L243.981 160.432L234.957 146.848C234.445 146.08 234.077 145.472 233.852 145.024C233.628 144.576 233.516 144.176 233.516 143.824C233.516 143.312 233.709 142.928 234.093 142.672C234.509 142.384 235.005 142.24 235.581 142.24L236.397 143.296C236.845 143.904 237.293 144.32 237.741 144.544C238.189 144.768 238.749 144.88 239.421 144.88C240.925 144.88 242.125 144.384 243.021 143.392C243.917 142.4 244.365 141.008 244.365 139.216C244.365 137.648 244.061 136.272 243.453 135.088C242.877 133.904 242.269 132.944 241.629 132.208H231.596V129.76H279.165V132.208H274.605ZM271.581 147.712V132.208H262.461C263.069 132.784 263.629 133.52 264.141 134.416C264.685 135.312 264.957 136.352 264.957 137.536C264.957 139.488 264.285 141.088 262.941 142.336C261.597 143.552 259.597 144.24 256.941 144.4C257.293 146.32 258.157 147.84 259.533 148.96C260.941 150.08 262.749 150.64 264.957 150.64C266.589 150.64 267.981 150.336 269.133 149.728C270.285 149.088 271.101 148.416 271.581 147.712ZM244.701 132.208C244.989 132.528 245.293 132.944 245.613 133.456C245.965 133.968 246.269 134.544 246.525 135.184C246.813 135.792 247.037 136.448 247.197 137.152C247.389 137.856 247.485 138.592 247.485 139.36C247.485 141.312 247.005 142.992 246.045 144.4C247.293 145.104 248.765 145.456 250.461 145.456C251.165 145.456 251.837 145.408 252.477 145.312C253.117 145.184 253.709 145.024 254.253 144.832C254.029 144.032 253.917 143.088 253.917 142L255.261 141.952C257.693 141.888 259.389 141.456 260.349 140.656C261.341 139.856 261.837 138.704 261.837 137.2C261.837 136.176 261.597 135.264 261.117 134.464C260.669 133.664 260.077 132.912 259.341 132.208H244.701ZM295.269 132.208V144.976H305.877V132.208H295.269ZM295.269 151.072C295.141 151.232 294.885 151.376 294.501 151.504C294.149 151.632 293.749 151.696 293.301 151.696C292.757 151.696 292.229 151.6 291.717 151.408C291.237 151.184 290.805 150.896 290.421 150.544C290.037 150.16 289.733 149.712 289.509 149.2C289.285 148.688 289.173 148.128 289.173 147.52C289.173 146.688 289.397 146.064 289.845 145.648C290.293 145.2 290.933 144.976 291.765 144.976H292.245V132.208H286.773V129.76H313.461V132.208H308.901V160H305.877V147.52H295.269V151.072ZM298.251 165.904C298.251 163.984 298.891 162.432 300.171 161.248C301.451 160.096 303.291 159.52 305.691 159.52C307.163 159.52 308.523 159.792 309.771 160.336C310.987 160.88 312.139 161.648 313.227 162.64C314.315 163.664 315.323 164.864 316.251 166.24C317.211 167.648 318.123 169.184 318.987 170.848L316.635 172.24C315.867 170.768 315.067 169.408 314.235 168.16C313.435 166.912 312.603 165.84 311.739 164.944C310.843 164.048 309.915 163.344 308.955 162.832C307.963 162.32 306.923 162.064 305.835 162.064C304.235 162.064 303.083 162.432 302.379 163.168C301.643 163.936 301.275 164.896 301.275 166.048C301.275 167.232 301.675 168.16 302.475 168.832C303.275 169.536 304.283 169.888 305.499 169.888C306.331 169.888 307.067 169.728 307.707 169.408L308.763 171.616C308.251 171.872 307.755 172.064 307.275 172.192C306.763 172.32 306.123 172.384 305.355 172.384C304.267 172.384 303.291 172.208 302.427 171.856C301.563 171.536 300.827 171.072 300.219 170.464C299.579 169.888 299.099 169.2 298.779 168.4C298.427 167.632 298.251 166.8 298.251 165.904ZM326.571 143.248C326.027 142.64 325.323 142.16 324.459 141.808C323.595 141.424 322.683 141.232 321.723 141.232C320.123 141.232 318.795 141.712 317.739 142.672C316.715 143.6 316.203 145.024 316.203 146.944C316.203 148.288 316.411 149.52 316.827 150.64C317.275 151.728 317.883 152.736 318.651 153.664C319.419 154.592 320.315 155.44 321.339 156.208C322.363 156.944 323.451 157.616 324.603 158.224L322.779 160.432C321.467 159.728 320.219 158.928 319.035 158.032C317.851 157.104 316.811 156.08 315.915 154.96C315.051 153.808 314.363 152.56 313.851 151.216C313.339 149.84 313.083 148.352 313.083 146.752C313.083 145.408 313.307 144.224 313.755 143.2C314.203 142.176 314.811 141.328 315.579 140.656C316.347 139.984 317.227 139.488 318.219 139.168C319.211 138.816 320.251 138.64 321.339 138.64C322.651 138.64 323.851 138.88 324.939 139.36C326.059 139.84 326.987 140.496 327.723 141.328C328.363 140.496 329.147 139.856 330.075 139.408C331.003 138.96 332.043 138.736 333.195 138.736C333.803 138.736 334.379 138.8 334.923 138.928C335.499 139.024 335.963 139.152 336.315 139.312V132.208H310.683V129.76H343.899V132.208H339.339V160H336.315V141.76C336.059 141.6 335.707 141.472 335.259 141.376C334.843 141.28 334.347 141.232 333.771 141.232C331.979 141.232 330.667 141.952 329.835 143.392C329.035 144.8 328.603 146.96 328.539 149.872H325.563C325.563 148.336 325.659 147.04 325.851 145.984C326.075 144.896 326.315 143.984 326.571 143.248ZM334.677 122.8C334.677 122.224 334.885 121.712 335.301 121.264C335.717 120.816 336.245 120.592 336.885 120.592C337.525 120.592 338.053 120.816 338.469 121.264C338.853 121.712 339.045 122.224 339.045 122.8C339.045 123.472 338.853 124.016 338.469 124.432C338.053 124.848 337.525 125.056 336.885 125.056C336.245 125.056 335.717 124.848 335.301 124.432C334.885 124.016 334.677 123.472 334.677 122.8ZM353.003 131.392C353.771 130.784 354.763 130.304 355.979 129.952C357.195 129.568 358.459 129.376 359.771 129.376C360.955 129.376 362.059 129.536 363.083 129.856C364.139 130.176 365.035 130.656 365.771 131.296C366.507 131.904 367.083 132.672 367.499 133.6C367.947 134.528 368.171 135.616 368.171 136.864C368.171 138.432 367.787 139.76 367.019 140.848C366.283 141.904 365.451 142.688 364.523 143.2C365.451 143.52 366.443 143.744 367.499 143.872C368.587 144 369.627 144.064 370.619 144.064C371.707 144.064 372.763 143.936 373.787 143.68C374.843 143.392 375.611 143.072 376.091 142.72V132.208H371.435V129.76H383.675V132.208H379.115V160H376.091V145.888C374.843 146.432 373.339 146.704 371.579 146.704C370.779 146.704 370.011 146.656 369.275 146.56C368.571 146.432 367.787 146.208 366.923 145.888L366.875 145.984C367.515 146.624 367.995 147.392 368.315 148.288C368.667 149.184 368.843 150.096 368.843 151.024C368.843 152.272 368.619 153.392 368.171 154.384C367.755 155.376 367.147 156.224 366.347 156.928C365.547 157.632 364.587 158.176 363.467 158.56C362.347 158.912 361.099 159.088 359.723 159.088C358.219 159.088 356.763 158.832 355.355 158.32C353.979 157.808 352.875 157.184 352.043 156.448L353.387 154.336C354.219 155.04 355.147 155.584 356.171 155.968C357.195 156.352 358.331 156.544 359.579 156.544C360.411 156.544 361.195 156.432 361.931 156.208C362.667 155.984 363.307 155.648 363.851 155.2C364.427 154.72 364.875 154.128 365.195 153.424C365.547 152.688 365.723 151.84 365.723 150.88C365.723 149.184 365.179 147.76 364.091 146.608C363.035 145.456 361.355 144.88 359.051 144.88H355.979V142.336H358.763C360.683 142.368 362.203 141.92 363.323 140.992C364.475 140.064 365.051 138.72 365.051 136.96C365.051 135.264 364.507 134 363.419 133.168C362.363 132.336 361.099 131.92 359.627 131.92C358.795 131.92 357.899 132.048 356.939 132.304C356.011 132.56 355.131 132.976 354.299 133.552L353.003 131.392ZM385.305 143.92C386.745 143.792 388.089 143.552 389.337 143.2C390.585 142.816 391.657 142.304 392.553 141.664C393.481 141.024 394.201 140.256 394.713 139.36C395.225 138.464 395.481 137.408 395.481 136.192C395.481 134.656 395.097 133.552 394.329 132.88C393.561 132.208 392.665 131.872 391.641 131.872C390.521 131.872 389.625 132.192 388.953 132.832C388.281 133.44 387.945 134.272 387.945 135.328C387.945 136.192 388.153 136.912 388.569 137.488C389.017 138.064 389.513 138.464 390.057 138.688L388.569 140.656C387.641 140.304 386.793 139.664 386.025 138.736C385.257 137.808 384.873 136.624 384.873 135.184C384.873 134.384 385.017 133.632 385.305 132.928C385.625 132.192 386.073 131.568 386.649 131.056C387.225 130.512 387.929 130.08 388.761 129.76C389.625 129.44 390.585 129.28 391.641 129.28C392.729 129.28 393.689 129.472 394.521 129.856C395.385 130.208 396.121 130.704 396.729 131.344C397.337 131.984 397.801 132.752 398.121 133.648C398.441 134.512 398.601 135.44 398.601 136.432C398.601 137.68 398.361 138.864 397.881 139.984C397.433 141.072 396.729 142.064 395.769 142.96C394.841 143.824 393.673 144.56 392.265 145.168C390.857 145.744 389.209 146.144 387.321 146.368C387.673 147.968 388.569 149.248 390.009 150.208C391.481 151.136 393.241 151.6 395.289 151.6C396.985 151.6 398.521 151.312 399.897 150.736C401.305 150.128 402.377 149.344 403.113 148.384V129.76H410.697V132.208H406.137V160H403.113V151.84C402.313 152.48 401.273 153.04 399.993 153.52C398.713 154 397.161 154.24 395.337 154.24C393.833 154.24 392.409 154.016 391.065 153.568C389.753 153.12 388.585 152.464 387.561 151.6C386.569 150.704 385.753 149.632 385.113 148.384C384.505 147.104 384.153 145.648 384.057 144.016L385.305 143.92ZM402.232 129.952V129.616C401.912 129.392 401.576 129.088 401.224 128.704C400.84 128.288 400.504 127.808 400.216 127.264C399.896 126.72 399.64 126.112 399.448 125.44C399.256 124.768 399.16 124.032 399.16 123.232C399.16 122.24 399.352 121.344 399.736 120.544C400.088 119.744 400.6 119.072 401.272 118.528C401.912 117.952 402.664 117.52 403.528 117.232C404.392 116.944 405.304 116.8 406.264 116.8C407.192 116.8 408.088 116.896 408.952 117.088C409.784 117.28 410.472 117.552 411.016 117.904L410.248 120.256C409.768 120 409.24 119.792 408.664 119.632C408.056 119.472 407.432 119.392 406.792 119.392C405.384 119.392 404.28 119.76 403.48 120.496C402.68 121.232 402.28 122.336 402.28 123.808C402.28 124.48 402.376 125.12 402.568 125.728C402.728 126.336 402.952 126.896 403.24 127.408C403.528 127.92 403.848 128.384 404.2 128.8C404.52 129.184 404.84 129.504 405.16 129.76L402.232 129.952ZM407.914 132.208V129.76H415.066V132.208H407.914ZM408.682 140.56C408.682 140.016 408.874 139.536 409.258 139.12C409.642 138.672 410.154 138.448 410.794 138.448C411.434 138.448 411.93 138.672 412.282 139.12C412.666 139.536 412.858 140.016 412.858 140.56C412.858 141.2 412.666 141.728 412.282 142.144C411.898 142.528 411.402 142.72 410.794 142.72C410.154 142.72 409.642 142.528 409.258 142.144C408.874 141.728 408.682 141.2 408.682 140.56ZM408.682 151.84C408.682 151.296 408.874 150.816 409.258 150.4C409.642 149.952 410.154 149.728 410.794 149.728C411.434 149.728 411.93 149.952 412.282 150.4C412.666 150.816 412.858 151.296 412.858 151.84C412.858 152.48 412.666 153.008 412.282 153.424C411.898 153.808 411.402 154 410.794 154C410.154 154 409.642 153.808 409.258 153.424C408.874 153.008 408.682 152.48 408.682 151.84Z" fill="white"/>
<path d="M27.648 48.52C32.192 48.52 36.352 49.128 40.128 50.344C43.904 51.56 47.136 53.384 49.824 55.816C52.576 58.248 54.688 61.288 56.16 64.936C57.696 68.52 58.464 72.712 58.464 77.512C58.464 83.08 57.568 87.88 55.776 91.912C53.984 95.88 51.552 99.144 48.48 101.704C45.408 104.2 41.824 106.056 37.728 107.272C33.696 108.424 29.376 109 24.768 109H7.008V48.52H27.648ZM18.72 99.784H23.904C26.72 99.784 29.44 99.464 32.064 98.824C34.752 98.12 37.12 96.936 39.168 95.272C41.216 93.608 42.848 91.336 44.064 88.456C45.344 85.576 45.984 81.928 45.984 77.512C45.984 71.112 44.16 66.216 40.512 62.824C36.928 59.432 32.064 57.736 25.92 57.736H18.72V99.784ZM69.4455 109V48.52H81.1575V73H106.022V48.52H117.734V109H106.022V82.408H81.1575V109H69.4455ZM145.712 85.384H162.512L159.344 76.456C158.448 73.768 157.584 71.24 156.752 68.872C155.984 66.504 155.184 63.912 154.352 61.096H154.16C153.264 63.72 152.4 66.28 151.568 68.776C150.736 71.208 149.84 73.768 148.88 76.456L145.712 85.384ZM148.592 48.52H160.304L183.248 109H170.864L165.488 94.12H142.928L137.552 109H125.36L148.592 48.52ZM191.039 48.52H212.831C216.159 48.52 219.071 49 221.567 49.96C224.063 50.92 226.143 52.232 227.807 53.896C229.535 55.56 230.815 57.512 231.647 59.752C232.543 61.992 232.991 64.424 232.991 67.048C232.991 69.48 232.607 71.624 231.839 73.48C231.135 75.336 230.207 76.968 229.055 78.376C227.903 79.784 226.623 80.968 225.215 81.928C223.807 82.824 222.431 83.56 221.087 84.136L236.351 109H223.007L210.431 86.248H202.463V109H191.039V48.52ZM202.463 77.128H208.319C211.967 77.128 214.975 76.392 217.343 74.92C219.711 73.384 220.895 70.856 220.895 67.336C220.895 64.136 219.935 61.704 218.015 60.04C216.159 58.376 213.407 57.544 209.759 57.544H202.463V77.128ZM248.502 48.52H263.382L272.982 78.664C273.814 81.288 274.582 83.912 275.286 86.536C276.054 89.096 276.726 91.624 277.302 94.12H277.686C277.942 93.032 278.23 91.848 278.55 90.568C278.934 89.224 279.318 87.88 279.702 86.536C280.086 85.128 280.438 83.752 280.758 82.408C281.142 81.064 281.526 79.816 281.91 78.664L291.222 48.52H306.102L310.902 109H299.67C299.158 102.408 298.678 95.848 298.23 89.32C297.846 82.728 297.59 76.136 297.462 69.544L297.174 60.04H296.886C295.926 63.816 294.902 67.688 293.814 71.656C292.726 75.624 291.638 79.24 290.55 82.504L282.102 109H272.598L263.958 82.504C262.486 78.024 261.238 73.928 260.214 70.216C259.254 66.44 258.422 63.048 257.718 60.04H257.526C257.398 65.032 257.174 70.248 256.854 75.688C256.598 81.128 256.31 86.152 255.99 90.76L254.934 109H243.894L248.502 48.52ZM338.087 85.384H354.887L351.719 76.456C350.823 73.768 349.959 71.24 349.127 68.872C348.359 66.504 347.559 63.912 346.727 61.096H346.535C345.639 63.72 344.775 66.28 343.943 68.776C343.111 71.208 342.215 73.768 341.255 76.456L338.087 85.384ZM340.967 48.52H352.679L375.623 109H363.239L357.863 94.12H335.303L329.927 109H317.735L340.967 48.52ZM383.414 48.52H405.206C408.534 48.52 411.446 49 413.942 49.96C416.438 50.92 418.518 52.232 420.182 53.896C421.91 55.56 423.19 57.512 424.022 59.752C424.918 61.992 425.366 64.424 425.366 67.048C425.366 69.48 424.982 71.624 424.214 73.48C423.51 75.336 422.582 76.968 421.43 78.376C420.278 79.784 418.998 80.968 417.59 81.928C416.182 82.824 414.806 83.56 413.462 84.136L428.726 109H415.382L402.806 86.248H394.838V109H383.414V48.52ZM394.838 77.128H400.694C404.342 77.128 407.35 76.392 409.718 74.92C412.086 73.384 413.27 70.856 413.27 67.336C413.27 64.136 412.31 61.704 410.39 60.04C408.534 58.376 405.782 57.544 402.134 57.544H394.838V77.128ZM477.368 48.52V57.928H459.608V109H447.896V57.928H430.616V48.52H477.368ZM485.227 109V48.52H496.939V73H521.803V48.52H533.515V109H521.803V82.408H496.939V109H485.227ZM561.493 85.384H578.293L575.125 76.456C574.229 73.768 573.365 71.24 572.533 68.872C571.765 66.504 570.965 63.912 570.133 61.096H569.941C569.045 63.72 568.181 66.28 567.349 68.776C566.517 71.208 565.621 73.768 564.661 76.456L561.493 85.384ZM564.373 48.52H576.085L599.029 109H586.645L581.269 94.12H558.709L553.333 109H541.141L564.373 48.52Z" fill="#F7931A"/>
</svg>
