<svg width="724" height="191" viewBox="0 0 724 191" fill="none" xmlns="http://www.w3.org/2000/svg">
<path d="M265.976 138.76H273.56V141.208H269V169H265.976V161.608C265.144 162.28 263.944 162.888 262.376 163.432C260.808 163.976 259.08 164.248 257.192 164.248C255.752 164.248 254.44 164.072 253.256 163.72C252.104 163.368 251.112 162.888 250.28 162.28C249.448 161.64 248.808 160.888 248.36 160.024C247.912 159.128 247.688 158.168 247.688 157.144C247.688 155.864 248.088 154.792 248.888 153.928C249.72 153.064 250.84 152.472 252.248 152.152C251.64 151.896 251.032 151.56 250.424 151.144C249.816 150.696 249.272 150.168 248.792 149.56C248.312 148.952 247.912 148.264 247.592 147.496C247.304 146.696 247.16 145.816 247.16 144.856C247.16 143.992 247.304 143.16 247.592 142.36C247.912 141.56 248.36 140.856 248.936 140.248C249.544 139.64 250.264 139.16 251.096 138.808C251.96 138.456 252.936 138.28 254.024 138.28C255.144 138.28 256.12 138.456 256.952 138.808C257.816 139.128 258.52 139.576 259.064 140.152C259.64 140.696 260.072 141.32 260.36 142.024C260.648 142.728 260.792 143.464 260.792 144.232C260.792 145.512 260.472 146.552 259.832 147.352C259.224 148.12 258.6 148.648 257.96 148.936L256.184 147.112C256.6 146.856 256.968 146.488 257.288 146.008C257.608 145.528 257.768 144.92 257.768 144.184C257.768 143.16 257.448 142.344 256.808 141.736C256.168 141.128 255.288 140.824 254.168 140.824C253.08 140.824 252.152 141.192 251.384 141.928C250.648 142.664 250.28 143.704 250.28 145.048C250.28 145.976 250.456 146.84 250.808 147.64C251.192 148.408 251.704 149.08 252.344 149.656C252.984 150.2 253.72 150.632 254.552 150.952C255.416 151.24 256.344 151.384 257.336 151.384H260.12V153.928H256.328C254.408 153.928 253.016 154.248 252.152 154.888C251.288 155.528 250.856 156.376 250.856 157.432C250.856 158.648 251.384 159.656 252.44 160.456C253.528 161.224 255.128 161.608 257.24 161.608C258.936 161.608 260.568 161.32 262.136 160.744C263.736 160.168 265.016 159.336 265.976 158.248V138.76ZM280.182 141.208V153.976H290.79V141.208H280.182ZM280.182 160.072C280.054 160.232 279.798 160.376 279.414 160.504C279.062 160.632 278.662 160.696 278.214 160.696C277.67 160.696 277.142 160.6 276.63 160.408C276.15 160.184 275.718 159.896 275.334 159.544C274.95 159.16 274.646 158.712 274.422 158.2C274.198 157.688 274.086 157.128 274.086 156.52C274.086 155.688 274.31 155.064 274.758 154.648C275.206 154.2 275.846 153.976 276.678 153.976H277.158V141.208H271.686V138.76H298.374V141.208H293.814V169H290.79V156.52H280.182V160.072ZM289.164 138.952V138.616C288.844 138.392 288.508 138.088 288.156 137.704C287.772 137.288 287.436 136.808 287.148 136.264C286.828 135.72 286.572 135.112 286.38 134.44C286.188 133.768 286.092 133.032 286.092 132.232C286.092 131.24 286.284 130.344 286.668 129.544C287.02 128.744 287.532 128.072 288.204 127.528C288.844 126.952 289.596 126.52 290.46 126.232C291.324 125.944 292.236 125.8 293.196 125.8C294.124 125.8 295.02 125.896 295.884 126.088C296.716 126.28 297.404 126.552 297.948 126.904L297.18 129.256C296.7 129 296.172 128.792 295.596 128.632C294.988 128.472 294.364 128.392 293.724 128.392C292.316 128.392 291.212 128.76 290.412 129.496C289.612 130.232 289.212 131.336 289.212 132.808C289.212 133.48 289.308 134.12 289.5 134.728C289.66 135.336 289.884 135.896 290.172 136.408C290.46 136.92 290.78 137.384 291.132 137.8C291.452 138.184 291.772 138.504 292.092 138.76L289.164 138.952ZM338.605 141.208V169H335.581V159.976C335.357 160.2 335.053 160.44 334.669 160.696C334.285 160.952 333.805 161.192 333.229 161.416C332.685 161.64 332.045 161.832 331.309 161.992C330.573 162.152 329.741 162.232 328.813 162.232C327.821 162.232 326.845 162.12 325.885 161.896C324.957 161.64 324.061 161.272 323.196 160.792C322.365 160.312 321.597 159.72 320.893 159.016C320.221 158.28 319.645 157.432 319.165 156.472C318.589 156.664 317.933 156.824 317.197 156.952C316.493 157.048 315.693 157.096 314.797 157.096C313.613 157.096 312.461 156.92 311.341 156.568C310.221 156.216 309.245 155.736 308.412 155.128C307.229 155.992 305.693 156.424 303.805 156.424C303.325 156.424 302.925 156.376 302.605 156.28L310.573 167.704L307.981 169.432L298.957 155.848C298.445 155.08 298.077 154.472 297.852 154.024C297.628 153.576 297.516 153.176 297.516 152.824C297.516 152.312 297.709 151.928 298.093 151.672C298.509 151.384 299.005 151.24 299.581 151.24L300.397 152.296C300.845 152.904 301.293 153.32 301.741 153.544C302.189 153.768 302.749 153.88 303.421 153.88C304.925 153.88 306.125 153.384 307.021 152.392C307.917 151.4 308.365 150.008 308.365 148.216C308.365 146.648 308.061 145.272 307.453 144.088C306.877 142.904 306.269 141.944 305.629 141.208H295.596V138.76H343.165V141.208H338.605ZM335.581 156.712V141.208H326.461C327.069 141.784 327.629 142.52 328.141 143.416C328.685 144.312 328.957 145.352 328.957 146.536C328.957 148.488 328.285 150.088 326.941 151.336C325.597 152.552 323.597 153.24 320.941 153.4C321.293 155.32 322.157 156.84 323.533 157.96C324.941 159.08 326.749 159.64 328.957 159.64C330.589 159.64 331.981 159.336 333.133 158.728C334.285 158.088 335.101 157.416 335.581 156.712ZM308.701 141.208C308.989 141.528 309.293 141.944 309.613 142.456C309.965 142.968 310.269 143.544 310.525 144.184C310.813 144.792 311.037 145.448 311.197 146.152C311.389 146.856 311.485 147.592 311.485 148.36C311.485 150.312 311.005 151.992 310.045 153.4C311.293 154.104 312.765 154.456 314.461 154.456C315.165 154.456 315.837 154.408 316.477 154.312C317.117 154.184 317.709 154.024 318.253 153.832C318.029 153.032 317.917 152.088 317.917 151L319.261 150.952C321.693 150.888 323.389 150.456 324.349 149.656C325.341 148.856 325.837 147.704 325.837 146.2C325.837 145.176 325.597 144.264 325.117 143.464C324.669 142.664 324.077 141.912 323.341 141.208H308.701ZM359.269 141.208V153.976H369.877V141.208H359.269ZM359.269 160.072C359.141 160.232 358.885 160.376 358.501 160.504C358.149 160.632 357.749 160.696 357.301 160.696C356.757 160.696 356.229 160.6 355.717 160.408C355.237 160.184 354.805 159.896 354.421 159.544C354.037 159.16 353.733 158.712 353.509 158.2C353.285 157.688 353.173 157.128 353.173 156.52C353.173 155.688 353.397 155.064 353.845 154.648C354.293 154.2 354.933 153.976 355.765 153.976H356.245V141.208H350.773V138.76H377.461V141.208H372.901V169H369.877V156.52H359.269V160.072ZM362.251 174.904C362.251 172.984 362.891 171.432 364.171 170.248C365.451 169.096 367.291 168.52 369.691 168.52C371.163 168.52 372.523 168.792 373.771 169.336C374.987 169.88 376.139 170.648 377.227 171.64C378.315 172.664 379.323 173.864 380.251 175.24C381.211 176.648 382.123 178.184 382.987 179.848L380.635 181.24C379.867 179.768 379.067 178.408 378.235 177.16C377.435 175.912 376.603 174.84 375.739 173.944C374.843 173.048 373.915 172.344 372.955 171.832C371.963 171.32 370.923 171.064 369.835 171.064C368.235 171.064 367.083 171.432 366.379 172.168C365.643 172.936 365.275 173.896 365.275 175.048C365.275 176.232 365.675 177.16 366.475 177.832C367.275 178.536 368.283 178.888 369.499 178.888C370.331 178.888 371.067 178.728 371.707 178.408L372.763 180.616C372.251 180.872 371.755 181.064 371.275 181.192C370.763 181.32 370.123 181.384 369.355 181.384C368.267 181.384 367.291 181.208 366.427 180.856C365.563 180.536 364.827 180.072 364.219 179.464C363.579 178.888 363.099 178.2 362.779 177.4C362.427 176.632 362.251 175.8 362.251 174.904ZM390.571 152.248C390.027 151.64 389.323 151.16 388.459 150.808C387.595 150.424 386.683 150.232 385.723 150.232C384.123 150.232 382.795 150.712 381.739 151.672C380.715 152.6 380.203 154.024 380.203 155.944C380.203 157.288 380.411 158.52 380.827 159.64C381.275 160.728 381.883 161.736 382.651 162.664C383.419 163.592 384.315 164.44 385.339 165.208C386.363 165.944 387.451 166.616 388.603 167.224L386.779 169.432C385.467 168.728 384.219 167.928 383.035 167.032C381.851 166.104 380.811 165.08 379.915 163.96C379.051 162.808 378.363 161.56 377.851 160.216C377.339 158.84 377.083 157.352 377.083 155.752C377.083 154.408 377.307 153.224 377.755 152.2C378.203 151.176 378.811 150.328 379.579 149.656C380.347 148.984 381.227 148.488 382.219 148.168C383.211 147.816 384.251 147.64 385.339 147.64C386.651 147.64 387.851 147.88 388.939 148.36C390.059 148.84 390.987 149.496 391.723 150.328C392.363 149.496 393.147 148.856 394.075 148.408C395.003 147.96 396.043 147.736 397.195 147.736C397.803 147.736 398.379 147.8 398.923 147.928C399.499 148.024 399.963 148.152 400.315 148.312V141.208H374.683V138.76H407.899V141.208H403.339V169H400.315V150.76C400.059 150.6 399.707 150.472 399.259 150.376C398.843 150.28 398.347 150.232 397.771 150.232C395.979 150.232 394.667 150.952 393.835 152.392C393.035 153.8 392.603 155.96 392.539 158.872H389.563C389.563 157.336 389.659 156.04 389.851 154.984C390.075 153.896 390.315 152.984 390.571 152.248ZM398.677 131.8C398.677 131.224 398.885 130.712 399.301 130.264C399.717 129.816 400.245 129.592 400.885 129.592C401.525 129.592 402.053 129.816 402.469 130.264C402.853 130.712 403.045 131.224 403.045 131.8C403.045 132.472 402.853 133.016 402.469 133.432C402.053 133.848 401.525 134.056 400.885 134.056C400.245 134.056 399.717 133.848 399.301 133.432C398.885 133.016 398.677 132.472 398.677 131.8ZM417.003 140.392C417.771 139.784 418.763 139.304 419.979 138.952C421.195 138.568 422.459 138.376 423.771 138.376C424.955 138.376 426.059 138.536 427.083 138.856C428.139 139.176 429.035 139.656 429.771 140.296C430.507 140.904 431.083 141.672 431.499 142.6C431.947 143.528 432.171 144.616 432.171 145.864C432.171 147.432 431.787 148.76 431.019 149.848C430.283 150.904 429.451 151.688 428.523 152.2C429.451 152.52 430.443 152.744 431.499 152.872C432.587 153 433.627 153.064 434.619 153.064C435.707 153.064 436.763 152.936 437.787 152.68C438.843 152.392 439.611 152.072 440.091 151.72V141.208H435.435V138.76H447.675V141.208H443.115V169H440.091V154.888C438.843 155.432 437.339 155.704 435.579 155.704C434.779 155.704 434.011 155.656 433.275 155.56C432.571 155.432 431.787 155.208 430.923 154.888L430.875 154.984C431.515 155.624 431.995 156.392 432.315 157.288C432.667 158.184 432.843 159.096 432.843 160.024C432.843 161.272 432.619 162.392 432.171 163.384C431.755 164.376 431.147 165.224 430.347 165.928C429.547 166.632 428.587 167.176 427.467 167.56C426.347 167.912 425.099 168.088 423.723 168.088C422.219 168.088 420.763 167.832 419.355 167.32C417.979 166.808 416.875 166.184 416.043 165.448L417.387 163.336C418.219 164.04 419.147 164.584 420.171 164.968C421.195 165.352 422.331 165.544 423.579 165.544C424.411 165.544 425.195 165.432 425.931 165.208C426.667 164.984 427.307 164.648 427.851 164.2C428.427 163.72 428.875 163.128 429.195 162.424C429.547 161.688 429.723 160.84 429.723 159.88C429.723 158.184 429.179 156.76 428.091 155.608C427.035 154.456 425.355 153.88 423.051 153.88H419.979V151.336H422.763C424.683 151.368 426.203 150.92 427.323 149.992C428.475 149.064 429.051 147.72 429.051 145.96C429.051 144.264 428.507 143 427.419 142.168C426.363 141.336 425.099 140.92 423.627 140.92C422.795 140.92 421.899 141.048 420.939 141.304C420.011 141.56 419.131 141.976 418.299 142.552L417.003 140.392ZM449.305 152.92C450.745 152.792 452.089 152.552 453.337 152.2C454.585 151.816 455.657 151.304 456.553 150.664C457.481 150.024 458.201 149.256 458.713 148.36C459.225 147.464 459.481 146.408 459.481 145.192C459.481 143.656 459.097 142.552 458.329 141.88C457.561 141.208 456.665 140.872 455.641 140.872C454.521 140.872 453.625 141.192 452.953 141.832C452.281 142.44 451.945 143.272 451.945 144.328C451.945 145.192 452.153 145.912 452.569 146.488C453.017 147.064 453.513 147.464 454.057 147.688L452.569 149.656C451.641 149.304 450.793 148.664 450.025 147.736C449.257 146.808 448.873 145.624 448.873 144.184C448.873 143.384 449.017 142.632 449.305 141.928C449.625 141.192 450.073 140.568 450.649 140.056C451.225 139.512 451.929 139.08 452.761 138.76C453.625 138.44 454.585 138.28 455.641 138.28C456.729 138.28 457.689 138.472 458.521 138.856C459.385 139.208 460.121 139.704 460.729 140.344C461.337 140.984 461.801 141.752 462.121 142.648C462.441 143.512 462.601 144.44 462.601 145.432C462.601 146.68 462.361 147.864 461.881 148.984C461.433 150.072 460.729 151.064 459.769 151.96C458.841 152.824 457.673 153.56 456.265 154.168C454.857 154.744 453.209 155.144 451.321 155.368C451.673 156.968 452.569 158.248 454.009 159.208C455.481 160.136 457.241 160.6 459.289 160.6C460.985 160.6 462.521 160.312 463.897 159.736C465.305 159.128 466.377 158.344 467.113 157.384V138.76H474.697V141.208H470.137V169H467.113V160.84C466.313 161.48 465.273 162.04 463.993 162.52C462.713 163 461.161 163.24 459.337 163.24C457.833 163.24 456.409 163.016 455.065 162.568C453.753 162.12 452.585 161.464 451.561 160.6C450.569 159.704 449.753 158.632 449.113 157.384C448.505 156.104 448.153 154.648 448.057 153.016L449.305 152.92ZM466.232 138.952V138.616C465.912 138.392 465.576 138.088 465.224 137.704C464.84 137.288 464.504 136.808 464.216 136.264C463.896 135.72 463.64 135.112 463.448 134.44C463.256 133.768 463.16 133.032 463.16 132.232C463.16 131.24 463.352 130.344 463.736 129.544C464.088 128.744 464.6 128.072 465.272 127.528C465.912 126.952 466.664 126.52 467.528 126.232C468.392 125.944 469.304 125.8 470.264 125.8C471.192 125.8 472.088 125.896 472.952 126.088C473.784 126.28 474.472 126.552 475.016 126.904L474.248 129.256C473.768 129 473.24 128.792 472.664 128.632C472.056 128.472 471.432 128.392 470.792 128.392C469.384 128.392 468.28 128.76 467.48 129.496C466.68 130.232 466.28 131.336 466.28 132.808C466.28 133.48 466.376 134.12 466.568 134.728C466.728 135.336 466.952 135.896 467.24 136.408C467.528 136.92 467.848 137.384 468.2 137.8C468.52 138.184 468.84 138.504 469.16 138.76L466.232 138.952ZM471.914 141.208V138.76H479.066V141.208H471.914ZM472.682 149.56C472.682 149.016 472.874 148.536 473.258 148.12C473.642 147.672 474.154 147.448 474.794 147.448C475.434 147.448 475.93 147.672 476.282 148.12C476.666 148.536 476.858 149.016 476.858 149.56C476.858 150.2 476.666 150.728 476.282 151.144C475.898 151.528 475.402 151.72 474.794 151.72C474.154 151.72 473.642 151.528 473.258 151.144C472.874 150.728 472.682 150.2 472.682 149.56ZM472.682 160.84C472.682 160.296 472.874 159.816 473.258 159.4C473.642 158.952 474.154 158.728 474.794 158.728C475.434 158.728 475.93 158.952 476.282 159.4C476.666 159.816 476.858 160.296 476.858 160.84C476.858 161.48 476.666 162.008 476.282 162.424C475.898 162.808 475.402 163 474.794 163C474.154 163 473.642 162.808 473.258 162.424C472.874 162.008 472.682 161.48 472.682 160.84Z" fill="#323232"/>
<path d="M34.656 39.8C41.312 39.8 47.168 41.208 52.224 44.024C57.28 46.776 61.216 50.68 64.032 55.736C66.848 60.792 68.256 66.616 68.256 73.208C68.256 79.864 66.848 85.752 64.032 90.872C61.216 95.992 57.248 99.96 52.128 102.776C47.008 105.592 41.12 107 34.464 107H8.928V39.8H34.656ZM34.656 96.632C39.072 96.632 42.944 95.672 46.272 93.752C49.664 91.832 52.288 89.144 54.144 85.688C56 82.168 56.928 78.136 56.928 73.592C56.928 68.984 56 64.92 54.144 61.4C52.288 57.816 49.664 55.064 46.272 53.144C42.88 51.16 38.944 50.168 34.464 50.168H20.064V96.632H34.656ZM128.044 67.736V39.8H139.276V107H128.044V77.912H92.9078V107H81.7718V39.8H92.9078V67.736H128.044ZM221.371 107H209.083L202.747 92.984H167.515L161.179 107H149.083L179.035 39.8H191.419L221.371 107ZM171.739 83H198.523L189.595 61.496C189.339 60.984 189.019 60.216 188.635 59.192C186.587 54.392 185.467 51.608 185.275 50.84H185.083L184.219 52.856L180.571 61.592L171.739 83ZM271.337 107L251.849 84.056H242.537V107H231.209V39.8H258.569C263.241 39.8 267.369 40.728 270.953 42.584C274.537 44.376 277.321 46.936 279.305 50.264C281.289 53.592 282.281 57.432 282.281 61.784C282.281 67.352 280.713 72.056 277.577 75.896C274.505 79.736 270.281 82.232 264.905 83.384L285.449 107H271.337ZM270.953 62.168C270.953 58.392 269.801 55.416 267.497 53.24C265.257 51.064 262.089 49.976 257.993 49.976H242.537V73.976H258.089C262.121 73.976 265.257 72.952 267.497 70.904C269.801 68.792 270.953 65.88 270.953 62.168ZM357.404 39.8H368.252V107H357.116V65.72C357.116 63.032 357.212 60.792 357.404 59L357.212 58.904C356.636 59.928 355.484 61.72 353.756 64.28L352.316 66.392L334.556 92.696H330.716L313.148 66.488C311.932 64.76 310.3 62.36 308.252 59.288L307.964 59.384C308.156 61.176 308.252 63.416 308.252 66.104V107H297.116V39.8H308.06L332.732 76.76L357.404 39.8ZM450.308 107H438.02L431.684 92.984H396.452L390.116 107H378.02L407.972 39.8H420.356L450.308 107ZM400.676 83H427.46L418.532 61.496C418.276 60.984 417.956 60.216 417.572 59.192C415.524 54.392 414.404 51.608 414.212 50.84H414.02L413.156 52.856L409.508 61.592L400.676 83ZM500.275 107L480.787 84.056H471.475V107H460.147V39.8H487.507C492.179 39.8 496.307 40.728 499.891 42.584C503.475 44.376 506.259 46.936 508.243 50.264C510.227 53.592 511.219 57.432 511.219 61.784C511.219 67.352 509.651 72.056 506.515 75.896C503.443 79.736 499.219 82.232 493.843 83.384L514.387 107H500.275ZM499.891 62.168C499.891 58.392 498.739 55.416 496.435 53.24C494.195 51.064 491.027 49.976 486.931 49.976H471.475V73.976H487.027C491.059 73.976 494.195 72.952 496.435 70.904C498.739 68.792 499.891 65.88 499.891 62.168ZM517.632 39.8H572.064V49.784H550.464V107H539.232V49.784H517.632V39.8ZM628.856 67.736V39.8H640.088V107H628.856V77.912H593.72V107H582.584V39.8H593.72V67.736H628.856ZM722.183 107H709.895L703.559 92.984H668.327L661.991 107H649.895L679.847 39.8H692.231L722.183 107ZM672.551 83H699.335L690.407 61.496C690.151 60.984 689.831 60.216 689.447 59.192C687.399 54.392 686.279 51.608 686.087 50.84H685.895L685.031 52.856L681.383 61.592L672.551 83Z" fill="#F7931A"/>
</svg>
