<svg width="26" height="26" viewBox="0 0 26 26" fill="none" xmlns="http://www.w3.org/2000/svg">
<g clip-path="url(#clip0_3442_30)">
<path d="M7.06872 24.8592V4.67378C7.05463 4.08295 7.27582 3.51073 7.68362 3.08298C8.09142 2.65523 8.65244 2.40699 9.24326 2.39287H21.6684C21.5612 1.91275 21.2954 1.48271 20.914 1.17202C20.5325 0.861337 20.0576 0.688085 19.5657 0.680176H6.5265C5.93567 0.6943 5.37466 0.94254 4.96686 1.37029C4.55905 1.79804 4.33787 2.37026 4.35195 2.96108V23.1465C4.33787 23.7374 4.55905 24.3096 4.96686 24.7373C5.37466 25.1651 5.93567 25.4133 6.5265 25.4274H7.14104C7.09233 25.2414 7.06849 25.0497 7.07013 24.8573L7.06872 24.8592Z" fill="#D4E1F4"/>
<path d="M19.588 0.110107H6.50719C5.76787 0.127465 5.06565 0.437485 4.55469 0.972105C4.04374 1.50672 3.7658 2.22225 3.78191 2.9616V23.1471C3.7658 23.8864 4.04374 24.6019 4.55469 25.1365C5.06565 25.6712 5.76787 25.9812 6.50719 25.9985H19.588C20.327 25.9811 21.0289 25.6712 21.5397 25.1369C22.0505 24.6026 22.3286 23.8875 22.3128 23.1485V2.9616C22.3289 2.22233 22.0511 1.50687 21.5402 0.972268C21.0294 0.437662 20.3273 0.127588 19.588 0.110107ZM21.2256 23.1485C21.2341 23.5917 21.0669 24.0204 20.7606 24.3409C20.4543 24.6614 20.0336 24.8477 19.5904 24.8593H6.50719C6.06398 24.8477 5.64332 24.6614 5.33699 24.3409C5.03065 24.0204 4.86351 23.5917 4.87202 23.1485V2.9616C4.86351 2.51833 5.03065 2.08968 5.33699 1.76917C5.64332 1.44867 6.06398 1.26232 6.50719 1.2508H19.588C20.0316 1.26171 20.4529 1.44779 20.7597 1.76836C21.0666 2.08893 21.2341 2.51793 21.2256 2.9616V23.1485Z" fill="#165DF5"/>
<path d="M15.2379 2.79517H10.6761C10.5248 2.79517 10.3797 2.85526 10.2728 2.96222C10.1658 3.06918 10.1057 3.21425 10.1057 3.36551C10.1057 3.51678 10.1658 3.66185 10.2728 3.76881C10.3797 3.87577 10.5248 3.93586 10.6761 3.93586H15.2379C15.3891 3.93586 15.5342 3.87577 15.6412 3.76881C15.7481 3.66185 15.8082 3.51678 15.8082 3.36551C15.8082 3.21425 15.7481 3.06918 15.6412 2.96222C15.5342 2.85526 15.3891 2.79517 15.2379 2.79517Z" fill="#165DF5"/>
<path d="M13.0478 13.8533C13.6309 13.8533 14.2009 13.6804 14.6858 13.3565C15.1707 13.0325 15.5486 12.572 15.7717 12.0332C15.9949 11.4945 16.0533 10.9017 15.9395 10.3297C15.8257 9.7578 15.5449 9.23246 15.1326 8.82011C14.7203 8.40777 14.1949 8.12696 13.623 8.0132C13.051 7.89943 12.4582 7.95782 11.9195 8.18098C11.3807 8.40413 10.9202 8.78204 10.5963 9.2669C10.2723 9.75176 10.0994 10.3218 10.0994 10.9049C10.0994 11.6869 10.41 12.4368 10.9629 12.9898C11.5159 13.5427 12.2658 13.8533 13.0478 13.8533ZM13.0478 9.10291C13.4053 9.10291 13.7548 9.20893 14.0521 9.40756C14.3493 9.60619 14.581 9.88852 14.7179 10.2188C14.8547 10.5492 14.8905 10.9126 14.8207 11.2633C14.751 11.6139 14.5788 11.936 14.326 12.1889C14.0732 12.4417 13.7511 12.6138 13.4004 12.6836C13.0498 12.7533 12.6863 12.7175 12.356 12.5807C12.0257 12.4439 11.7433 12.2122 11.5447 11.9149C11.3461 11.6177 11.2401 11.2682 11.2401 10.9106C11.2401 10.4312 11.4305 9.97139 11.7695 9.63238C12.1085 9.29336 12.5683 9.10291 13.0478 9.10291Z" fill="#17E79B"/>
<path d="M13.0478 14.9425C12.4508 14.9381 11.8592 15.0546 11.3084 15.2849C10.7577 15.5153 10.2593 15.8546 9.84315 16.2827C8.97777 17.1803 8.50202 18.3834 8.51951 19.6301C8.51988 19.7811 8.58007 19.9259 8.6869 20.0328C8.79374 20.1396 8.93853 20.1998 9.08962 20.2002H17.0045C17.1556 20.1998 17.3004 20.1396 17.4072 20.0328C17.514 19.9259 17.5742 19.7811 17.5746 19.6301C17.5921 18.3834 17.1163 17.1803 16.251 16.2827C15.8349 15.8546 15.3364 15.5153 14.7857 15.2849C14.2349 15.0546 13.6433 14.9381 13.0463 14.9425H13.0478ZM9.70085 19.06C9.7985 18.3143 10.1346 17.6201 10.6591 17.0811C10.9715 16.7649 11.3436 16.5139 11.7537 16.3426C12.1639 16.1713 12.604 16.0831 13.0485 16.0831C13.493 16.0831 13.9331 16.1713 14.3432 16.3426C14.7534 16.5139 15.1254 16.7649 15.4379 17.0811C15.9612 17.6209 16.2972 18.3146 16.3961 19.06H9.70085Z" fill="#17E79B"/>
</g>
<defs>
<clipPath id="clip0_3442_30">
<rect width="26" height="26" fill="white"/>
</clipPath>
</defs>
</svg>
